<svg xmlns="http://www.w3.org/2000/svg" viewBox="0 0 80 80" fill="none">
  <circle cx="40" cy="40" r="36" fill="#7B5EA7"/>
  <circle cx="40" cy="40" r="33" fill="none" stroke="#9B7FC7" stroke-width="1.5" opacity="0.5"/>
  <ellipse cx="30" cy="28" rx="5.5" ry="6.5" fill="white" opacity="0.95"/>
  <ellipse cx="50" cy="28" rx="5.5" ry="6.5" fill="white" opacity="0.95"/>
  <ellipse cx="22" cy="38" rx="5" ry="6" fill="white" opacity="0.95" transform="rotate(-15 22 38)"/>
  <ellipse cx="58" cy="38" rx="5" ry="6" fill="white" opacity="0.95" transform="rotate(15 58 38)"/>
  <path d="M30 48 C30 42, 34 38, 40 38 C46 38, 50 42, 50 48 C50 55, 44 58, 40 58 C36 58, 30 55, 30 48Z" fill="white" opacity="0.95"/>
  <path d="M37 47 C37 45, 38.5 44, 40 45.5 C41.5 44, 43 45, 43 47 C43 49, 40 51, 40 51 C40 51, 37 49, 37 47Z" fill="#7B5EA7" opacity="0.6"/>
</svg>
